<svg width="215" height="56" viewBox="0 0 215 56" fill="none" xmlns="http://www.w3.org/2000/svg">
<rect x="0.244141" width="56" height="56" rx="28" fill="#F5F5F5"/>
<path d="M27.2539 34.5V28.5H21.2539V27.5H27.2539V21.5H28.2539V27.5H34.2539V28.5H28.2539V34.5H27.2539Z" fill="#D4D4D4"/>
<path d="M73.4281 33V21.8H77.1081C77.9828 21.8 78.7028 21.944 79.2681 22.232C79.8335 22.52 80.2495 22.9093 80.5161 23.4C80.7935 23.8907 80.9321 24.4453 80.9321 25.064C80.9321 25.672 80.7988 26.2213 80.5321 26.712C80.2655 27.2027 79.8495 27.5973 79.2841 27.896C78.7188 28.184 77.9935 28.328 77.1081 28.328H74.7721V33H73.4281ZM74.7721 27.192H77.0761C77.9721 27.192 78.6068 27.0053 78.9801 26.632C79.3641 26.248 79.5561 25.7253 79.5561 25.064C79.5561 24.392 79.3641 23.8693 78.9801 23.496C78.6068 23.112 77.9721 22.92 77.0761 22.92H74.7721V27.192ZM82.6138 33V25.064H83.8298L83.9418 26.584C84.1871 26.0613 84.5604 25.6453 85.0618 25.336C85.5631 25.0267 86.1818 24.872 86.9178 24.872V26.28H86.5498C86.0804 26.28 85.6484 26.3653 85.2538 26.536C84.8591 26.696 84.5444 26.9733 84.3098 27.368C84.0751 27.7627 83.9578 28.3067 83.9578 29V33H82.6138ZM91.7454 33.192C90.9987 33.192 90.3267 33.0213 89.7294 32.68C89.1321 32.3387 88.6574 31.8587 88.3054 31.24C87.9641 30.6107 87.7934 29.8747 87.7934 29.032C87.7934 28.1893 87.9694 27.4587 88.3214 26.84C88.6734 26.2107 89.1481 25.7253 89.7454 25.384C90.3534 25.0427 91.0307 24.872 91.7774 24.872C92.5241 24.872 93.1961 25.0427 93.7934 25.384C94.3907 25.7253 94.8601 26.2107 95.2014 26.84C95.5534 27.4587 95.7294 28.1893 95.7294 29.032C95.7294 29.8747 95.5534 30.6107 95.2014 31.24C94.8494 31.8587 94.3694 32.3387 93.7614 32.68C93.1641 33.0213 92.4921 33.192 91.7454 33.192ZM91.7454 32.04C92.2041 32.04 92.6307 31.928 93.0254 31.704C93.4201 31.48 93.7401 31.144 93.9854 30.696C94.2307 30.248 94.3534 29.6933 94.3534 29.032C94.3534 28.3707 94.2307 27.816 93.9854 27.368C93.7507 26.92 93.4361 26.584 93.0414 26.36C92.6467 26.136 92.2254 26.024 91.7774 26.024C91.3187 26.024 90.8921 26.136 90.4974 26.36C90.1027 26.584 89.7827 26.92 89.5374 27.368C89.2921 27.816 89.1694 28.3707 89.1694 29.032C89.1694 29.6933 89.2921 30.248 89.5374 30.696C89.7827 31.144 90.0974 31.48 90.4814 31.704C90.8761 31.928 91.2974 32.04 91.7454 32.04ZM91.4094 24.408V23.4L94.7694 21.368V22.536L91.4094 24.408ZM96.4544 33L99.2064 29.032L96.4544 25.064H97.9104L100.134 28.344L102.374 25.064H103.814L101.062 29.032L103.814 33H102.374L100.134 29.72L97.9104 33H96.4544ZM106.039 23.304C105.772 23.304 105.548 23.2187 105.367 23.048C105.196 22.8667 105.111 22.6427 105.111 22.376C105.111 22.12 105.196 21.9067 105.367 21.736C105.548 21.5653 105.772 21.48 106.039 21.48C106.295 21.48 106.514 21.5653 106.695 21.736C106.876 21.9067 106.967 22.12 106.967 22.376C106.967 22.6427 106.876 22.8667 106.695 23.048C106.514 23.2187 106.295 23.304 106.039 23.304ZM105.367 33V25.064H106.711V33H105.367ZM109.051 33V25.064H110.267L110.363 26.216C110.619 25.7893 110.961 25.4587 111.387 25.224C111.814 24.9893 112.294 24.872 112.827 24.872C113.457 24.872 113.995 25 114.443 25.256C114.902 25.512 115.254 25.9013 115.499 26.424C115.777 25.944 116.155 25.5653 116.635 25.288C117.126 25.0107 117.654 24.872 118.219 24.872C119.169 24.872 119.926 25.16 120.491 25.736C121.057 26.3013 121.339 27.176 121.339 28.36V33H120.011V28.504C120.011 27.6827 119.846 27.064 119.515 26.648C119.185 26.232 118.71 26.024 118.091 26.024C117.451 26.024 116.918 26.2747 116.491 26.776C116.075 27.2667 115.867 27.9707 115.867 28.888V33H114.523V28.504C114.523 27.6827 114.358 27.064 114.027 26.648C113.697 26.232 113.222 26.024 112.603 26.024C111.974 26.024 111.446 26.2747 111.019 26.776C110.603 27.2667 110.395 27.9707 110.395 28.888V33H109.051ZM126.004 33.192C125.342 33.192 124.793 33.08 124.356 32.856C123.918 32.632 123.593 32.3333 123.38 31.96C123.166 31.5867 123.06 31.1813 123.06 30.744C123.06 29.9333 123.369 29.3093 123.988 28.872C124.606 28.4347 125.449 28.216 126.516 28.216H128.66V28.12C128.66 27.4267 128.478 26.904 128.116 26.552C127.753 26.1893 127.268 26.008 126.66 26.008C126.137 26.008 125.684 26.1413 125.3 26.408C124.926 26.664 124.692 27.0427 124.596 27.544H123.22C123.273 26.968 123.465 26.4827 123.796 26.088C124.137 25.6933 124.558 25.3947 125.06 25.192C125.561 24.9787 126.094 24.872 126.66 24.872C127.769 24.872 128.601 25.1707 129.156 25.768C129.721 26.3547 130.004 27.1387 130.004 28.12V33H128.804L128.724 31.576C128.5 32.024 128.169 32.408 127.732 32.728C127.305 33.0373 126.729 33.192 126.004 33.192ZM126.212 32.056C126.724 32.056 127.161 31.9227 127.524 31.656C127.897 31.3893 128.18 31.0427 128.372 30.616C128.564 30.1893 128.66 29.7413 128.66 29.272V29.256H126.628C125.838 29.256 125.278 29.3947 124.948 29.672C124.628 29.9387 124.468 30.2747 124.468 30.68C124.468 31.096 124.617 31.432 124.916 31.688C125.225 31.9333 125.657 32.056 126.212 32.056ZM132.02 33V25.064H133.236L133.332 26.216C133.588 25.7893 133.929 25.4587 134.356 25.224C134.783 24.9893 135.263 24.872 135.796 24.872C136.425 24.872 136.964 25 137.412 25.256C137.871 25.512 138.223 25.9013 138.468 26.424C138.745 25.944 139.124 25.5653 139.604 25.288C140.095 25.0107 140.623 24.872 141.188 24.872C142.137 24.872 142.895 25.16 143.46 25.736C144.025 26.3013 144.308 27.176 144.308 28.36V33H142.98V28.504C142.98 27.6827 142.815 27.064 142.484 26.648C142.153 26.232 141.679 26.024 141.06 26.024C140.42 26.024 139.887 26.2747 139.46 26.776C139.044 27.2667 138.836 27.9707 138.836 28.888V33H137.492V28.504C137.492 27.6827 137.327 27.064 136.996 26.648C136.665 26.232 136.191 26.024 135.572 26.024C134.943 26.024 134.415 26.2747 133.988 26.776C133.572 27.2667 133.364 27.9707 133.364 28.888V33H132.02ZM149.901 33.192C149.143 33.192 148.471 33.0213 147.885 32.68C147.298 32.328 146.834 31.8427 146.493 31.224C146.162 30.6053 145.997 29.8747 145.997 29.032C145.997 28.2 146.162 27.4747 146.493 26.856C146.823 26.2267 147.282 25.7413 147.869 25.4C148.466 25.048 149.154 24.872 149.933 24.872C150.701 24.872 151.362 25.048 151.917 25.4C152.482 25.7413 152.914 26.1947 153.213 26.76C153.511 27.3253 153.661 27.9333 153.661 28.584C153.661 28.7013 153.655 28.8187 153.645 28.936C153.645 29.0533 153.645 29.1867 153.645 29.336H147.325C147.357 29.944 147.495 30.4507 147.741 30.856C147.997 31.2507 148.311 31.5493 148.685 31.752C149.069 31.9547 149.474 32.056 149.901 32.056C150.455 32.056 150.919 31.928 151.293 31.672C151.666 31.416 151.938 31.0693 152.109 30.632H153.437C153.223 31.368 152.813 31.9813 152.205 32.472C151.607 32.952 150.839 33.192 149.901 33.192ZM149.901 26.008C149.261 26.008 148.69 26.2053 148.189 26.6C147.698 26.984 147.415 27.5493 147.341 28.296H152.333C152.301 27.5813 152.055 27.0213 151.597 26.616C151.138 26.2107 150.573 26.008 149.901 26.008ZM155.442 33V25.064H156.658L156.738 26.488C156.994 25.9867 157.362 25.592 157.842 25.304C158.322 25.016 158.866 24.872 159.474 24.872C160.413 24.872 161.159 25.16 161.714 25.736C162.279 26.3013 162.562 27.176 162.562 28.36V33H161.218V28.504C161.218 26.8507 160.535 26.024 159.17 26.024C158.487 26.024 157.917 26.2747 157.458 26.776C157.01 27.2667 156.786 27.9707 156.786 28.888V33H155.442ZM167.734 33C167.009 33 166.438 32.824 166.022 32.472C165.606 32.12 165.398 31.4853 165.398 30.568V26.2H164.022V25.064H165.398L165.574 23.16H166.742V25.064H169.078V26.2H166.742V30.568C166.742 31.0693 166.843 31.4107 167.046 31.592C167.249 31.7627 167.606 31.848 168.118 31.848H168.95V33H167.734ZM174.135 33.192C173.378 33.192 172.706 33.0213 172.119 32.68C171.532 32.328 171.068 31.8427 170.727 31.224C170.396 30.6053 170.231 29.8747 170.231 29.032C170.231 28.2 170.396 27.4747 170.727 26.856C171.058 26.2267 171.516 25.7413 172.103 25.4C172.7 25.048 173.388 24.872 174.167 24.872C174.935 24.872 175.596 25.048 176.151 25.4C176.716 25.7413 177.148 26.1947 177.447 26.76C177.746 27.3253 177.895 27.9333 177.895 28.584C177.895 28.7013 177.89 28.8187 177.879 28.936C177.879 29.0533 177.879 29.1867 177.879 29.336H171.559C171.591 29.944 171.73 30.4507 171.975 30.856C172.231 31.2507 172.546 31.5493 172.919 31.752C173.303 31.9547 173.708 32.056 174.135 32.056C174.69 32.056 175.154 31.928 175.527 31.672C175.9 31.416 176.172 31.0693 176.343 30.632H177.671C177.458 31.368 177.047 31.9813 176.439 32.472C175.842 32.952 175.074 33.192 174.135 33.192ZM174.135 26.008C173.495 26.008 172.924 26.2053 172.423 26.6C171.932 26.984 171.65 27.5493 171.575 28.296H176.567C176.535 27.5813 176.29 27.0213 175.831 26.616C175.372 26.2107 174.807 26.008 174.135 26.008ZM183.911 33V25.064H185.127L185.223 26.216C185.479 25.7893 185.82 25.4587 186.247 25.224C186.673 24.9893 187.153 24.872 187.687 24.872C188.316 24.872 188.855 25 189.303 25.256C189.761 25.512 190.113 25.9013 190.359 26.424C190.636 25.944 191.015 25.5653 191.495 25.288C191.985 25.0107 192.513 24.872 193.079 24.872C194.028 24.872 194.785 25.16 195.351 25.736C195.916 26.3013 196.199 27.176 196.199 28.36V33H194.871V28.504C194.871 27.6827 194.705 27.064 194.375 26.648C194.044 26.232 193.569 26.024 192.951 26.024C192.311 26.024 191.777 26.2747 191.351 26.776C190.935 27.2667 190.727 27.9707 190.727 28.888V33H189.383V28.504C189.383 27.6827 189.217 27.064 188.887 26.648C188.556 26.232 188.081 26.024 187.463 26.024C186.833 26.024 186.305 26.2747 185.879 26.776C185.463 27.2667 185.255 27.9707 185.255 28.888V33H183.911ZM200.863 33.192C200.202 33.192 199.652 33.08 199.215 32.856C198.778 32.632 198.452 32.3333 198.239 31.96C198.026 31.5867 197.919 31.1813 197.919 30.744C197.919 29.9333 198.228 29.3093 198.847 28.872C199.466 28.4347 200.308 28.216 201.375 28.216H203.519V28.12C203.519 27.4267 203.338 26.904 202.975 26.552C202.612 26.1893 202.127 26.008 201.519 26.008C200.996 26.008 200.543 26.1413 200.159 26.408C199.786 26.664 199.551 27.0427 199.455 27.544H198.079C198.132 26.968 198.324 26.4827 198.655 26.088C198.996 25.6933 199.418 25.3947 199.919 25.192C200.42 24.9787 200.954 24.872 201.519 24.872C202.628 24.872 203.46 25.1707 204.015 25.768C204.58 26.3547 204.863 27.1387 204.863 28.12V33H203.663L203.583 31.576C203.359 32.024 203.028 32.408 202.591 32.728C202.164 33.0373 201.588 33.192 200.863 33.192ZM201.071 32.056C201.583 32.056 202.02 31.9227 202.383 31.656C202.756 31.3893 203.039 31.0427 203.231 30.616C203.423 30.1893 203.519 29.7413 203.519 29.272V29.256H201.487C200.698 29.256 200.138 29.3947 199.807 29.672C199.487 29.9387 199.327 30.2747 199.327 30.68C199.327 31.096 199.476 31.432 199.775 31.688C200.084 31.9333 200.516 32.056 201.071 32.056ZM201.103 24.408V23.4L204.463 21.368V22.536L201.103 24.408ZM209.919 33.192C208.97 33.192 208.181 32.952 207.551 32.472C206.922 31.992 206.554 31.3413 206.447 30.52H207.823C207.909 30.936 208.127 31.2987 208.479 31.608C208.842 31.9067 209.327 32.056 209.935 32.056C210.501 32.056 210.917 31.9387 211.183 31.704C211.45 31.4587 211.583 31.1707 211.583 30.84C211.583 30.36 211.407 30.04 211.055 29.88C210.714 29.72 210.229 29.576 209.599 29.448C209.173 29.3627 208.746 29.24 208.319 29.08C207.893 28.92 207.535 28.696 207.247 28.408C206.959 28.1093 206.815 27.72 206.815 27.24C206.815 26.5467 207.071 25.9813 207.583 25.544C208.106 25.096 208.81 24.872 209.695 24.872C210.538 24.872 211.226 25.0853 211.759 25.512C212.303 25.928 212.618 26.5253 212.703 27.304H211.375C211.322 26.8987 211.146 26.584 210.847 26.36C210.559 26.1253 210.17 26.008 209.679 26.008C209.199 26.008 208.826 26.1093 208.559 26.312C208.303 26.5147 208.175 26.7813 208.175 27.112C208.175 27.432 208.341 27.6827 208.671 27.864C209.013 28.0453 209.471 28.2 210.047 28.328C210.538 28.4347 211.002 28.568 211.439 28.728C211.887 28.8773 212.25 29.1067 212.527 29.416C212.815 29.7147 212.959 30.152 212.959 30.728C212.97 31.4427 212.698 32.0347 212.143 32.504C211.599 32.9627 210.858 33.192 209.919 33.192Z" fill="#D4D4D4"/>
</svg>
