<svg width="58" height="56" viewBox="0 0 58 56" fill="none" xmlns="http://www.w3.org/2000/svg">
<g clip-path="url(#clip0_1708_22916)">
<path d="M29.002 56C13.3535 55.9783 0.601335 43.3998 0.753297 27.9177C0.912496 12.0774 13.6068 0.0253651 29.1106 3.80331e-05C44.627 -0.0252891 57.2472 12.6021 57.2436 28.0263C57.2399 43.5084 44.609 56.0199 29.002 56ZM30.9088 25.0069C31.1078 24.5764 31.2218 24.3086 31.3538 24.0481C33.0508 20.7339 34.764 17.4269 36.4392 14.1C36.7087 13.5645 37.3998 12.9295 36.6544 12.3452C35.9489 11.7916 35.4333 12.4971 34.9539 12.9042C28.9532 18.0148 22.9615 23.1363 16.9735 28.2615C16.6334 28.5527 16.2951 28.8657 16.0328 29.2257C15.7089 29.6707 15.8645 30.0343 16.4036 30.1646C16.6913 30.2333 16.9988 30.237 17.2991 30.2388C20.2208 30.2442 23.1406 30.2424 26.0623 30.2424C26.3771 30.2424 26.6937 30.2424 27.1369 30.2424C26.9451 30.6567 26.8293 30.9262 26.6973 31.1867C25.0257 34.4811 23.3487 37.7718 21.6789 41.0679C21.5034 41.4153 21.2682 41.7626 21.2122 42.1335C21.1543 42.5061 21.2863 42.9059 21.3334 43.2949C21.7241 43.2442 22.142 43.2623 22.4984 43.1212C22.8186 42.9946 23.0809 42.7033 23.3523 42.4681C29.2445 37.3249 35.1366 32.1781 41.0252 27.0313C41.3418 26.7545 41.6692 26.4831 41.946 26.1683C42.467 25.5768 42.3368 25.1914 41.5679 25.0648C41.1844 25.0015 40.7882 25.0123 40.3974 25.0123C37.3003 25.0087 34.2013 25.0105 30.907 25.0105L30.9088 25.0069Z" fill="#6825E5"/>
<path d="M30.9094 25.0067C34.2037 25.0067 37.3027 25.0067 40.3998 25.0085C40.7906 25.0085 41.1867 24.9994 41.5703 25.061C42.3373 25.1858 42.4694 25.5711 41.9484 26.1645C41.6716 26.4793 41.3441 26.7506 41.0275 27.0274C35.139 32.1742 29.2468 37.3211 23.3547 42.4643C23.0833 42.7013 22.821 42.9907 22.5008 43.1174C22.1462 43.2585 21.7265 43.2404 21.3357 43.291C21.2869 42.9021 21.1566 42.5023 21.2145 42.1296C21.2724 41.7587 21.5058 41.4114 21.6813 41.0641C23.3529 37.7697 25.0281 34.4772 26.6996 31.1829C26.8317 30.9224 26.9475 30.6528 27.1393 30.2385C26.696 30.2385 26.3794 30.2385 26.0647 30.2385C23.143 30.2385 20.2231 30.2403 17.3015 30.2349C17.003 30.2349 16.6936 30.2313 16.406 30.1607C15.8669 30.0305 15.7113 29.6669 16.0351 29.2218C16.2974 28.8618 16.6357 28.5489 16.9759 28.2576C22.9639 23.1325 28.9556 18.011 34.9563 12.9003C35.4357 12.4933 35.9513 11.7859 36.6568 12.3413C37.4022 12.9257 36.7111 13.5606 36.4415 14.0961C34.7663 17.423 33.0549 20.73 31.3562 24.0443C31.2242 24.3048 31.1102 24.5725 30.9112 25.0031L30.9094 25.0067Z" fill="white"/>
</g>
<defs>
<clipPath id="clip0_1708_22916">
<rect width="56.4903" height="56" fill="white" transform="translate(0.753906)"/>
</clipPath>
</defs>
</svg>
