<svg width="64" height="64" viewBox="0 0 64 64" fill="none" xmlns="http://www.w3.org/2000/svg">
<rect y="9.14648" width="64" height="45.7143" rx="7.92" fill="white"/>
<mask id="mask0_2114_47843" style="mask-type:luminance" maskUnits="userSpaceOnUse" x="0" y="9" width="64" height="46">
<rect y="9.14648" width="64" height="45.7143" rx="7.92" fill="white"/>
</mask>
<g mask="url(#mask0_2114_47843)">
<rect y="9.14648" width="64" height="45.7143" fill="#05AB41"/>
<path fill-rule="evenodd" clip-rule="evenodd" d="M8.40045 33.4967C7.31778 32.7961 7.31778 31.2121 8.40045 30.5115L31.0327 15.8671C31.6204 15.4868 32.3766 15.4868 32.9643 15.8671L55.5966 30.5115C56.6792 31.2121 56.6792 32.7961 55.5966 33.4967L32.9643 48.1411C32.3766 48.5214 31.6204 48.5214 31.0327 48.1411L8.40045 33.4967Z" fill="#FDD216"/>
<path fill-rule="evenodd" clip-rule="evenodd" d="M31.9992 42.6693C37.8902 42.6693 42.6658 37.8936 42.6658 32.0026C42.6658 26.1116 37.8902 21.3359 31.9992 21.3359C26.1081 21.3359 21.3325 26.1116 21.3325 32.0026C21.3325 37.8936 26.1081 42.6693 31.9992 42.6693Z" fill="#053087"/>
<mask id="mask1_2114_47843" style="mask-type:luminance" maskUnits="userSpaceOnUse" x="21" y="21" width="22" height="22">
<path fill-rule="evenodd" clip-rule="evenodd" d="M31.9992 42.6693C37.8902 42.6693 42.6658 37.8936 42.6658 32.0026C42.6658 26.1116 37.8902 21.3359 31.9992 21.3359C26.1081 21.3359 21.3325 26.1116 21.3325 32.0026C21.3325 37.8936 26.1081 42.6693 31.9992 42.6693Z" fill="white"/>
</mask>
<g mask="url(#mask1_2114_47843)">
<path fill-rule="evenodd" clip-rule="evenodd" d="M21.1905 30.5968C21.1868 30.5987 21.1861 30.5991 21.1879 30.5976L19.8063 31.7164L17.5688 28.9532L18.9503 27.8344C19.8046 27.1426 20.9129 26.9356 21.8541 26.8791C22.8478 26.8195 23.973 26.9127 25.1241 27.0808C27.4295 27.4174 30.1333 28.1009 32.651 28.7725C35.3102 29.4819 38.0041 30.5722 40.2142 31.7018C41.321 32.2675 42.3289 32.8544 43.1642 33.4235C43.9709 33.9731 44.7211 34.5757 45.2203 35.1921L46.3391 36.5737L43.5759 38.8113L42.4571 37.4297C42.2864 37.2189 41.8766 36.8486 41.1623 36.3619C40.4767 35.8948 39.6027 35.3823 38.5961 34.8678C36.5794 33.8371 34.1202 32.8443 31.7346 32.2079C29.2076 31.5339 26.687 30.9022 24.6104 30.599C23.5704 30.4472 22.7153 30.3894 22.067 30.4283C21.4435 30.4657 21.2202 30.5814 21.1905 30.5968Z" fill="white"/>
</g>
</g>
</svg>
