<svg width="24" height="18" viewBox="0 0 24 18" fill="none" xmlns="http://www.w3.org/2000/svg">
<rect y="0.427734" width="24" height="17.1429" rx="2" fill="white"/>
<mask id="mask0_2119_58712" style="mask-type:luminance" maskUnits="userSpaceOnUse" x="0" y="0" width="24" height="18">
<rect y="0.427734" width="24" height="17.1429" rx="2" fill="white"/>
</mask>
<g mask="url(#mask0_2119_58712)">
<path fill-rule="evenodd" clip-rule="evenodd" d="M24 0.427734H0V1.57059H24V0.427734ZM24 2.71345H0V3.85631H24V2.71345ZM0 4.99916H24V6.14202H0V4.99916ZM24 7.28488H0V8.42773H24V7.28488ZM0 9.57059H24V10.7134H0V9.57059ZM24 11.8563H0V12.9992H24V11.8563ZM0 14.142H24V15.2849H0V14.142ZM24 16.4277H0V17.5706H24V16.4277Z" fill="#D02F44"/>
<rect y="0.427734" width="10.2857" height="8" fill="#46467F"/>
<g filter="url(#filter0_d_2119_58712)">
<path fill-rule="evenodd" clip-rule="evenodd" d="M2.28592 2.14174C2.28592 2.45733 2.03009 2.71317 1.7145 2.71317C1.3989 2.71317 1.14307 2.45733 1.14307 2.14174C1.14307 1.82615 1.3989 1.57031 1.7145 1.57031C2.03009 1.57031 2.28592 1.82615 2.28592 2.14174ZM4.57164 2.14174C4.57164 2.45733 4.3158 2.71317 4.00021 2.71317C3.68462 2.71317 3.42878 2.45733 3.42878 2.14174C3.42878 1.82615 3.68462 1.57031 4.00021 1.57031C4.3158 1.57031 4.57164 1.82615 4.57164 2.14174ZM6.28592 2.71317C6.60152 2.71317 6.85735 2.45733 6.85735 2.14174C6.85735 1.82615 6.60152 1.57031 6.28592 1.57031C5.97033 1.57031 5.7145 1.82615 5.7145 2.14174C5.7145 2.45733 5.97033 2.71317 6.28592 2.71317ZM9.14307 2.14174C9.14307 2.45733 8.88723 2.71317 8.57164 2.71317C8.25605 2.71317 8.00021 2.45733 8.00021 2.14174C8.00021 1.82615 8.25605 1.57031 8.57164 1.57031C8.88723 1.57031 9.14307 1.82615 9.14307 2.14174ZM2.85735 3.85603C3.17294 3.85603 3.42878 3.60019 3.42878 3.2846C3.42878 2.96901 3.17294 2.71317 2.85735 2.71317C2.54176 2.71317 2.28592 2.96901 2.28592 3.2846C2.28592 3.60019 2.54176 3.85603 2.85735 3.85603ZM5.7145 3.2846C5.7145 3.60019 5.45866 3.85603 5.14307 3.85603C4.82748 3.85603 4.57164 3.60019 4.57164 3.2846C4.57164 2.96901 4.82748 2.71317 5.14307 2.71317C5.45866 2.71317 5.7145 2.96901 5.7145 3.2846ZM7.42878 3.85603C7.74437 3.85603 8.00021 3.60019 8.00021 3.2846C8.00021 2.96901 7.74437 2.71317 7.42878 2.71317C7.11319 2.71317 6.85735 2.96901 6.85735 3.2846C6.85735 3.60019 7.11319 3.85603 7.42878 3.85603ZM9.14307 4.42746C9.14307 4.74305 8.88723 4.99888 8.57164 4.99888C8.25605 4.99888 8.00021 4.74305 8.00021 4.42746C8.00021 4.11186 8.25605 3.85603 8.57164 3.85603C8.88723 3.85603 9.14307 4.11186 9.14307 4.42746ZM6.28592 4.99888C6.60152 4.99888 6.85735 4.74305 6.85735 4.42746C6.85735 4.11186 6.60152 3.85603 6.28592 3.85603C5.97033 3.85603 5.7145 4.11186 5.7145 4.42746C5.7145 4.74305 5.97033 4.99888 6.28592 4.99888ZM4.57164 4.42746C4.57164 4.74305 4.3158 4.99888 4.00021 4.99888C3.68462 4.99888 3.42878 4.74305 3.42878 4.42746C3.42878 4.11186 3.68462 3.85603 4.00021 3.85603C4.3158 3.85603 4.57164 4.11186 4.57164 4.42746ZM1.7145 4.99888C2.03009 4.99888 2.28592 4.74305 2.28592 4.42746C2.28592 4.11186 2.03009 3.85603 1.7145 3.85603C1.3989 3.85603 1.14307 4.11186 1.14307 4.42746C1.14307 4.74305 1.3989 4.99888 1.7145 4.99888ZM3.42878 5.57031C3.42878 5.8859 3.17294 6.14174 2.85735 6.14174C2.54176 6.14174 2.28592 5.8859 2.28592 5.57031C2.28592 5.25472 2.54176 4.99888 2.85735 4.99888C3.17294 4.99888 3.42878 5.25472 3.42878 5.57031ZM5.14307 6.14174C5.45866 6.14174 5.7145 5.8859 5.7145 5.57031C5.7145 5.25472 5.45866 4.99888 5.14307 4.99888C4.82748 4.99888 4.57164 5.25472 4.57164 5.57031C4.57164 5.8859 4.82748 6.14174 5.14307 6.14174ZM8.00021 5.57031C8.00021 5.8859 7.74437 6.14174 7.42878 6.14174C7.11319 6.14174 6.85735 5.8859 6.85735 5.57031C6.85735 5.25472 7.11319 4.99888 7.42878 4.99888C7.74437 4.99888 8.00021 5.25472 8.00021 5.57031ZM8.57164 7.2846C8.88723 7.2846 9.14307 7.02876 9.14307 6.71317C9.14307 6.39758 8.88723 6.14174 8.57164 6.14174C8.25605 6.14174 8.00021 6.39758 8.00021 6.71317C8.00021 7.02876 8.25605 7.2846 8.57164 7.2846ZM6.85735 6.71317C6.85735 7.02876 6.60152 7.2846 6.28592 7.2846C5.97033 7.2846 5.7145 7.02876 5.7145 6.71317C5.7145 6.39758 5.97033 6.14174 6.28592 6.14174C6.60152 6.14174 6.85735 6.39758 6.85735 6.71317ZM4.00021 7.2846C4.3158 7.2846 4.57164 7.02876 4.57164 6.71317C4.57164 6.39758 4.3158 6.14174 4.00021 6.14174C3.68462 6.14174 3.42878 6.39758 3.42878 6.71317C3.42878 7.02876 3.68462 7.2846 4.00021 7.2846ZM2.28592 6.71317C2.28592 7.02876 2.03009 7.2846 1.7145 7.2846C1.3989 7.2846 1.14307 7.02876 1.14307 6.71317C1.14307 6.39758 1.3989 6.14174 1.7145 6.14174C2.03009 6.14174 2.28592 6.39758 2.28592 6.71317Z" fill="url(#paint0_linear_2119_58712)"/>
</g>
</g>
<defs>
<filter id="filter0_d_2119_58712" x="1.14307" y="1.57031" width="8" height="6.71484" filterUnits="userSpaceOnUse" color-interpolation-filters="sRGB">
<feFlood flood-opacity="0" result="BackgroundImageFix"/>
<feColorMatrix in="SourceAlpha" type="matrix" values="0 0 0 0 0 0 0 0 0 0 0 0 0 0 0 0 0 0 127 0" result="hardAlpha"/>
<feOffset dy="1"/>
<feColorMatrix type="matrix" values="0 0 0 0 0 0 0 0 0 0 0 0 0 0 0 0 0 0 0.06 0"/>
<feBlend mode="normal" in2="BackgroundImageFix" result="effect1_dropShadow_2119_58712"/>
<feBlend mode="normal" in="SourceGraphic" in2="effect1_dropShadow_2119_58712" result="shape"/>
</filter>
<linearGradient id="paint0_linear_2119_58712" x1="1.14307" y1="1.57031" x2="1.14307" y2="7.2846" gradientUnits="userSpaceOnUse">
<stop stop-color="white"/>
<stop offset="1" stop-color="#F0F0F0"/>
</linearGradient>
</defs>
</svg>
