<svg width="40" height="40" viewBox="0 0 40 40" fill="none" xmlns="http://www.w3.org/2000/svg">
<g clip-path="url(#clip0_2043_21930)">
<rect x="0.375977" y="0.0859375" width="39" height="39" rx="2.4375" fill="white"/>
<mask id="mask0_2043_21930" style="mask-type:luminance" maskUnits="userSpaceOnUse" x="0" y="0" width="40" height="40">
<rect x="0.375977" y="0.0859375" width="39" height="39" rx="2.4375" fill="white"/>
</mask>
<g mask="url(#mask0_2043_21930)">
<path fill-rule="evenodd" clip-rule="evenodd" d="M39.376 0.0859375H0.375977V2.68594H39.376V0.0859375ZM39.376 5.28586H0.375977V7.88586H39.376V5.28586ZM0.375977 10.4861H39.376V13.0861H0.375977V10.4861ZM39.376 15.686H0.375977V18.286H39.376V15.686ZM0.375977 20.8859H39.376V23.4859H0.375977V20.8859ZM39.376 26.0858H0.375977V28.6858H39.376V26.0858ZM0.375977 31.2861H39.376V33.8861H0.375977V31.2861ZM39.376 36.486H0.375977V39.086H39.376V36.486Z" fill="#D02F44"/>
<rect x="0.375977" y="0.0859375" width="16.7143" height="18.2" fill="#46467F"/>
<g filter="url(#filter0_d_2043_21930)">
<path fill-rule="evenodd" clip-rule="evenodd" d="M4.09054 3.98555C4.09054 4.70352 3.67481 5.28555 3.16197 5.28555C2.64913 5.28555 2.2334 4.70352 2.2334 3.98555C2.2334 3.26758 2.64913 2.68555 3.16197 2.68555C3.67481 2.68555 4.09054 3.26758 4.09054 3.98555ZM7.80497 3.98565C7.80497 4.70362 7.38924 5.28565 6.8764 5.28565C6.36357 5.28565 5.94783 4.70362 5.94783 3.98565C5.94783 3.26768 6.36357 2.68565 6.8764 2.68565C7.38924 2.68565 7.80497 3.26768 7.80497 3.98565ZM10.5904 5.28565C11.1032 5.28565 11.5189 4.70362 11.5189 3.98565C11.5189 3.26768 11.1032 2.68565 10.5904 2.68565C10.0775 2.68565 9.6618 3.26768 9.6618 3.98565C9.6618 4.70362 10.0775 5.28565 10.5904 5.28565ZM15.2335 3.98565C15.2335 4.70362 14.8178 5.28565 14.3049 5.28565C13.7921 5.28565 13.3764 4.70362 13.3764 3.98565C13.3764 3.26768 13.7921 2.68565 14.3049 2.68565C14.8178 2.68565 15.2335 3.26768 15.2335 3.98565ZM5.01912 7.88561C5.53195 7.88561 5.94769 7.30358 5.94769 6.58561C5.94769 5.86764 5.53195 5.28561 5.01912 5.28561C4.50628 5.28561 4.09055 5.86764 4.09055 6.58561C4.09055 7.30358 4.50628 7.88561 5.01912 7.88561ZM9.66166 6.58561C9.66166 7.30358 9.24593 7.88561 8.73309 7.88561C8.22026 7.88561 7.80452 7.30358 7.80452 6.58561C7.80452 5.86764 8.22026 5.28561 8.73309 5.28561C9.24593 5.28561 9.66166 5.86764 9.66166 6.58561ZM12.4477 7.88561C12.9605 7.88561 13.3762 7.30358 13.3762 6.58561C13.3762 5.86764 12.9605 5.28561 12.4477 5.28561C11.9348 5.28561 11.5191 5.86764 11.5191 6.58561C11.5191 7.30358 11.9348 7.88561 12.4477 7.88561ZM15.2335 9.18557C15.2335 9.90354 14.8178 10.4856 14.3049 10.4856C13.7921 10.4856 13.3764 9.90354 13.3764 9.18557C13.3764 8.4676 13.7921 7.88557 14.3049 7.88557C14.8178 7.88557 15.2335 8.4676 15.2335 9.18557ZM10.5904 10.4856C11.1032 10.4856 11.5189 9.90354 11.5189 9.18557C11.5189 8.4676 11.1032 7.88557 10.5904 7.88557C10.0775 7.88557 9.6618 8.4676 9.6618 9.18557C9.6618 9.90354 10.0775 10.4856 10.5904 10.4856ZM7.80497 9.18557C7.80497 9.90354 7.38924 10.4856 6.8764 10.4856C6.36357 10.4856 5.94783 9.90354 5.94783 9.18557C5.94783 8.4676 6.36357 7.88557 6.8764 7.88557C7.38924 7.88557 7.80497 8.4676 7.80497 9.18557ZM3.16183 10.4856C3.67467 10.4856 4.0904 9.90354 4.0904 9.18557C4.0904 8.4676 3.67467 7.88557 3.16183 7.88557C2.649 7.88557 2.23326 8.4676 2.23326 9.18557C2.23326 9.90354 2.649 10.4856 3.16183 10.4856ZM5.94769 11.7855C5.94769 12.5035 5.53195 13.0855 5.01912 13.0855C4.50628 13.0855 4.09055 12.5035 4.09055 11.7855C4.09055 11.0676 4.50628 10.4855 5.01912 10.4855C5.53195 10.4855 5.94769 11.0676 5.94769 11.7855ZM8.73309 13.0855C9.24593 13.0855 9.66166 12.5035 9.66166 11.7855C9.66166 11.0676 9.24593 10.4855 8.73309 10.4855C8.22026 10.4855 7.80452 11.0676 7.80452 11.7855C7.80452 12.5035 8.22026 13.0855 8.73309 13.0855ZM13.3762 11.7855C13.3762 12.5035 12.9605 13.0855 12.4477 13.0855C11.9348 13.0855 11.5191 12.5035 11.5191 11.7855C11.5191 11.0676 11.9348 10.4855 12.4477 10.4855C12.9605 10.4855 13.3762 11.0676 13.3762 11.7855ZM14.3049 15.6858C14.8178 15.6858 15.2335 15.1038 15.2335 14.3858C15.2335 13.6678 14.8178 13.0858 14.3049 13.0858C13.7921 13.0858 13.3764 13.6678 13.3764 14.3858C13.3764 15.1038 13.7921 15.6858 14.3049 15.6858ZM11.5189 14.3858C11.5189 15.1038 11.1032 15.6858 10.5904 15.6858C10.0775 15.6858 9.6618 15.1038 9.6618 14.3858C9.6618 13.6678 10.0775 13.0858 10.5904 13.0858C11.1032 13.0858 11.5189 13.6678 11.5189 14.3858ZM6.8764 15.6858C7.38924 15.6858 7.80497 15.1038 7.80497 14.3858C7.80497 13.6678 7.38924 13.0858 6.8764 13.0858C6.36357 13.0858 5.94783 13.6678 5.94783 14.3858C5.94783 15.1038 6.36357 15.6858 6.8764 15.6858ZM4.0904 14.3858C4.0904 15.1038 3.67467 15.6858 3.16183 15.6858C2.649 15.6858 2.23326 15.1038 2.23326 14.3858C2.23326 13.6678 2.649 13.0858 3.16183 13.0858C3.67467 13.0858 4.0904 13.6678 4.0904 14.3858Z" fill="url(#paint0_linear_2043_21930)"/>
</g>
</g>
</g>
<defs>
<filter id="filter0_d_2043_21930" x="2.2334" y="2.68555" width="13" height="14.2188" filterUnits="userSpaceOnUse" color-interpolation-filters="sRGB">
<feFlood flood-opacity="0" result="BackgroundImageFix"/>
<feColorMatrix in="SourceAlpha" type="matrix" values="0 0 0 0 0 0 0 0 0 0 0 0 0 0 0 0 0 0 127 0" result="hardAlpha"/>
<feOffset dy="1.21875"/>
<feColorMatrix type="matrix" values="0 0 0 0 0 0 0 0 0 0 0 0 0 0 0 0 0 0 0.06 0"/>
<feBlend mode="normal" in2="BackgroundImageFix" result="effect1_dropShadow_2043_21930"/>
<feBlend mode="normal" in="SourceGraphic" in2="effect1_dropShadow_2043_21930" result="shape"/>
</filter>
<linearGradient id="paint0_linear_2043_21930" x1="2.2334" y1="2.68555" x2="2.2334" y2="15.6858" gradientUnits="userSpaceOnUse">
<stop stop-color="white"/>
<stop offset="1" stop-color="#F0F0F0"/>
</linearGradient>
<clipPath id="clip0_2043_21930">
<rect x="0.375977" y="0.0859375" width="39" height="39" rx="19.5" fill="white"/>
</clipPath>
</defs>
</svg>
