<svg width="36" height="36" viewBox="0 0 36 36" fill="none" xmlns="http://www.w3.org/2000/svg">
<g clip-path="url(#clip0_2147_75889)">
<rect x="0.0371094" y="0.138672" width="35.0178" height="35.0178" rx="2.18861" fill="white"/>
<mask id="mask0_2147_75889" style="mask-type:luminance" maskUnits="userSpaceOnUse" x="0" y="0" width="36" height="36">
<rect x="0.0371094" y="0.138672" width="35.0178" height="35.0178" rx="2.18861" fill="white"/>
</mask>
<g mask="url(#mask0_2147_75889)">
<path fill-rule="evenodd" clip-rule="evenodd" d="M35.0545 0.136719H0.0366898V2.47124H35.0545V0.136719ZM35.0544 4.80605H0.0366211V7.14057H35.0544V4.80605ZM0.0366211 9.47343H35.0544V11.8079H0.0366211V9.47343ZM35.0544 14.143H0.0366211V16.4775H35.0544V14.143ZM0.0366211 18.8123H35.0544V21.1468H0.0366211V18.8123ZM35.0544 23.482H0.0366211V25.8165H35.0544V23.482ZM0.0366211 28.1494H35.0544V30.4839H0.0366211V28.1494ZM35.0544 32.8191H0.0366211V35.1536H35.0544V32.8191Z" fill="#D02F44"/>
<rect x="0.0371094" y="0.138672" width="15.0076" height="16.3416" fill="#46467F"/>
<g filter="url(#filter0_d_2147_75889)">
<path fill-rule="evenodd" clip-rule="evenodd" d="M3.37113 3.63992C3.37113 4.28458 2.99784 4.80718 2.53737 4.80718C2.0769 4.80718 1.70361 4.28458 1.70361 3.63992C1.70361 2.99526 2.0769 2.47266 2.53737 2.47266C2.99784 2.47266 3.37113 2.99526 3.37113 3.63992ZM6.70742 3.63992C6.70742 4.28458 6.33413 4.80718 5.87366 4.80718C5.41319 4.80718 5.0399 4.28458 5.0399 3.63992C5.0399 2.99526 5.41319 2.47266 5.87366 2.47266C6.33413 2.47266 6.70742 2.99526 6.70742 3.63992ZM9.2078 4.80718C9.66827 4.80718 10.0416 4.28458 10.0416 3.63992C10.0416 2.99526 9.66827 2.47266 9.2078 2.47266C8.74733 2.47266 8.37405 2.99526 8.37405 3.63992C8.37405 4.28458 8.74733 4.80718 9.2078 4.80718ZM13.3767 3.63992C13.3767 4.28458 13.0034 4.80718 12.5429 4.80718C12.0825 4.80718 11.7092 4.28458 11.7092 3.63992C11.7092 2.99526 12.0825 2.47266 12.5429 2.47266C13.0034 2.47266 13.3767 2.99526 13.3767 3.63992ZM4.20551 7.1398C4.66599 7.1398 5.03927 6.6172 5.03927 5.97254C5.03927 5.32788 4.66599 4.80527 4.20551 4.80527C3.74504 4.80527 3.37176 5.32788 3.37176 5.97254C3.37176 6.6172 3.74504 7.1398 4.20551 7.1398ZM8.37342 5.97254C8.37342 6.6172 8.00013 7.1398 7.53966 7.1398C7.07919 7.1398 6.7059 6.6172 6.7059 5.97254C6.7059 5.32788 7.07919 4.80527 7.53966 4.80527C8.00013 4.80527 8.37342 5.32788 8.37342 5.97254ZM10.8749 7.1398C11.3353 7.1398 11.7086 6.6172 11.7086 5.97254C11.7086 5.32788 11.3353 4.80527 10.8749 4.80527C10.4144 4.80527 10.0411 5.32788 10.0411 5.97254C10.0411 6.6172 10.4144 7.1398 10.8749 7.1398ZM13.3768 8.30943C13.3768 8.95409 13.0035 9.47669 12.543 9.47669C12.0826 9.47669 11.7093 8.95409 11.7093 8.30943C11.7093 7.66477 12.0826 7.14217 12.543 7.14217C13.0035 7.14217 13.3768 7.66477 13.3768 8.30943ZM9.2078 9.47669C9.66827 9.47669 10.0416 8.95409 10.0416 8.30943C10.0416 7.66477 9.66827 7.14217 9.2078 7.14217C8.74733 7.14217 8.37405 7.66477 8.37405 8.30943C8.37405 8.95409 8.74733 9.47669 9.2078 9.47669ZM6.70742 8.30943C6.70742 8.95409 6.33413 9.47669 5.87366 9.47669C5.41319 9.47669 5.0399 8.95409 5.0399 8.30943C5.0399 7.66477 5.41319 7.14217 5.87366 7.14217C6.33413 7.14217 6.70742 7.66477 6.70742 8.30943ZM2.53737 9.47669C2.99784 9.47669 3.37113 8.95409 3.37113 8.30943C3.37113 7.66477 2.99784 7.14217 2.53737 7.14217C2.0769 7.14217 1.70361 7.66477 1.70361 8.30943C1.70361 8.95409 2.0769 9.47669 2.53737 9.47669ZM5.03927 10.6442C5.03927 11.2889 4.66599 11.8115 4.20551 11.8115C3.74504 11.8115 3.37176 11.2889 3.37176 10.6442C3.37176 9.99954 3.74504 9.47694 4.20551 9.47694C4.66599 9.47694 5.03927 9.99954 5.03927 10.6442ZM7.53966 11.8115C8.00013 11.8115 8.37342 11.2889 8.37342 10.6442C8.37342 9.99954 8.00013 9.47694 7.53966 9.47694C7.07919 9.47694 6.7059 9.99954 6.7059 10.6442C6.7059 11.2889 7.07919 11.8115 7.53966 11.8115ZM11.7086 10.6442C11.7086 11.2889 11.3353 11.8115 10.8749 11.8115C10.4144 11.8115 10.0411 11.2889 10.0411 10.6442C10.0411 9.99954 10.4144 9.47694 10.8749 9.47694C11.3353 9.47694 11.7086 9.99954 11.7086 10.6442ZM12.543 14.1441C13.0035 14.1441 13.3768 13.6215 13.3768 12.9768C13.3768 12.3322 13.0035 11.8096 12.543 11.8096C12.0826 11.8096 11.7093 12.3322 11.7093 12.9768C11.7093 13.6215 12.0826 14.1441 12.543 14.1441ZM10.0416 12.9768C10.0416 13.6215 9.66827 14.1441 9.2078 14.1441C8.74733 14.1441 8.37405 13.6215 8.37405 12.9768C8.37405 12.3322 8.74733 11.8096 9.2078 11.8096C9.66827 11.8096 10.0416 12.3322 10.0416 12.9768ZM5.87366 14.1441C6.33413 14.1441 6.70742 13.6215 6.70742 12.9768C6.70742 12.3322 6.33413 11.8096 5.87366 11.8096C5.41319 11.8096 5.0399 12.3322 5.0399 12.9768C5.0399 13.6215 5.41319 14.1441 5.87366 14.1441ZM3.37113 12.9768C3.37113 13.6215 2.99784 14.1441 2.53737 14.1441C2.0769 14.1441 1.70361 13.6215 1.70361 12.9768C1.70361 12.3322 2.0769 11.8096 2.53737 11.8096C2.99784 11.8096 3.37113 12.3322 3.37113 12.9768Z" fill="url(#paint0_linear_2147_75889)"/>
</g>
</g>
</g>
<defs>
<filter id="filter0_d_2147_75889" x="1.70361" y="2.47266" width="11.6733" height="12.7662" filterUnits="userSpaceOnUse" color-interpolation-filters="sRGB">
<feFlood flood-opacity="0" result="BackgroundImageFix"/>
<feColorMatrix in="SourceAlpha" type="matrix" values="0 0 0 0 0 0 0 0 0 0 0 0 0 0 0 0 0 0 127 0" result="hardAlpha"/>
<feOffset dy="1.09431"/>
<feColorMatrix type="matrix" values="0 0 0 0 0 0 0 0 0 0 0 0 0 0 0 0 0 0 0.06 0"/>
<feBlend mode="normal" in2="BackgroundImageFix" result="effect1_dropShadow_2147_75889"/>
<feBlend mode="normal" in="SourceGraphic" in2="effect1_dropShadow_2147_75889" result="shape"/>
</filter>
<linearGradient id="paint0_linear_2147_75889" x1="1.70361" y1="2.47266" x2="1.70361" y2="14.1441" gradientUnits="userSpaceOnUse">
<stop stop-color="white"/>
<stop offset="1" stop-color="#F0F0F0"/>
</linearGradient>
<clipPath id="clip0_2147_75889">
<rect x="0.0366211" y="0.138672" width="35.0178" height="35.0178" rx="17.5089" fill="white"/>
</clipPath>
</defs>
</svg>
