<svg width="159" height="32" viewBox="0 0 159 32" fill="none" xmlns="http://www.w3.org/2000/svg">
<g clip-path="url(#clip0_2114_47999)">
<path d="M8.94097 8.94603H8.9461C10.6716 7.2205 13.0391 6.15232 15.6633 6.15232C18.2876 6.15232 20.6294 7.18969 22.3857 8.93576L26.453 4.86845L31.3214 0L22.9609 2.26475C20.7629 1.06305 18.2568 0.395433 15.6582 0.395433C11.4574 0.395433 7.63142 2.11069 4.86852 4.87358C2.11076 7.63648 0.395508 11.4522 0.395508 15.6633H6.1524C6.1524 13.0442 7.21544 10.6664 8.93583 8.94603H8.94097Z" fill="#9D59EF"/>
<path d="M12.7822 18.5394H24.7223C24.2549 20.0081 23.4435 21.3177 22.3753 22.3756C20.655 24.1011 18.2824 25.1693 15.6581 25.1693C13.0339 25.1693 10.6716 24.1062 8.94089 22.3756L4.86845 26.448L0 31.3216L8.35545 29.0569C10.5278 30.2483 13.0185 30.9262 15.6633 30.9262C19.8744 30.9262 23.69 29.2109 26.4529 26.448C29.2158 23.6851 30.9311 19.8695 30.9311 15.6584V12.7773H18.5443L12.7874 18.5342L12.7822 18.5394Z" fill="#9D59EF"/>
<path d="M55.1909 9.36817C54.0354 8.25891 52.3099 7.64778 50.8103 7.64778C47.1179 7.64778 44.8737 10.4569 44.8737 14.0004C44.8737 16.83 46.5222 19.7624 50.8103 19.7624C52.1661 19.7624 53.3472 19.4697 54.703 18.3861V15.3305H50.2968V12.4238H57.6867V19.6854C55.9869 21.6317 53.8454 22.7872 50.8154 22.7872C44.3396 22.7872 41.7051 18.5248 41.7051 13.9953C41.7051 9.14221 44.735 4.66406 50.8154 4.66406C53.1315 4.66406 55.4425 5.5525 57.2194 7.29857L55.2012 9.36817H55.1909Z" fill="#512082"/>
<path d="M63.5724 10.252V16.6046C63.5724 18.4533 64.5841 19.8553 66.4996 19.8553C68.4152 19.8553 69.6015 18.3044 69.6015 16.4556V10.252H72.58V22.4179H69.8942L69.699 20.7694C68.4408 22.002 67.2853 22.5925 65.5855 22.5925C62.6788 22.5925 60.563 20.3997 60.563 16.6302V10.252H63.5673H63.5724Z" fill="#512082"/>
<path d="M85.1927 10.2511H88.0737V22.3914H85.2389L85.09 20.6197C84.4018 22.0474 82.5068 22.7407 81.151 22.7612C77.5562 22.7869 74.896 20.5683 74.896 16.311C74.896 12.0537 77.6794 9.93273 81.2229 9.95327C82.8457 9.95327 84.4018 10.7185 85.09 11.9253L85.1875 10.2511H85.1927ZM77.9054 16.311C77.9054 18.622 79.5077 20.0034 81.5002 20.0034C86.23 20.0034 86.23 12.6391 81.5002 12.6391C79.5077 12.6391 77.9054 13.9949 77.9054 16.311V16.311Z" fill="#512082"/>
<path d="M95.0581 6.83203V10.2779H98.4064V12.8662H95.0324V18.1096C95.0324 19.2651 95.6743 19.83 96.609 19.83C97.0763 19.83 97.6207 19.681 98.0623 19.4653L98.8994 22.0228C98.0367 22.3669 97.3228 22.5158 96.4139 22.5415C93.7793 22.6442 92.0538 21.1395 92.0538 18.1096V12.8662H89.7891V10.2779H92.0538V7.15043L95.0581 6.83203V6.83203Z" fill="#512082"/>
<path d="M110.161 10.2511H113.042V22.3914H110.213L110.064 20.6197C109.375 22.0474 107.48 22.7407 106.125 22.7612C102.53 22.7869 99.8696 20.5683 99.8696 16.311C99.8696 12.0537 102.653 9.93273 106.197 9.95327C107.819 9.95327 109.375 10.7185 110.064 11.9253L110.161 10.2511V10.2511ZM102.874 16.311C102.874 18.622 104.476 20.0034 106.469 20.0034C111.199 20.0034 111.199 12.6391 106.469 12.6391C104.476 12.6391 102.874 13.9949 102.874 16.311V16.311Z" fill="#512082"/>
<path d="M115.913 27.4656V10.2514H118.722L118.917 11.9256C119.857 10.5698 121.48 9.98438 122.856 9.98438C126.6 9.98438 129.086 12.7678 129.086 16.337C129.086 19.9061 126.847 22.6896 122.954 22.6896C121.675 22.6896 119.775 22.2942 118.917 20.9641V27.4656H115.913V27.4656ZM126.081 16.337C126.081 14.442 124.803 12.8911 122.635 12.8911C120.468 12.8911 119.19 14.442 119.19 16.337C119.19 18.232 120.592 19.7829 122.635 19.7829C124.679 19.7829 126.081 18.232 126.081 16.337Z" fill="#512082"/>
<path d="M141.118 10.2511H143.999V22.3914H141.17L141.021 20.6197C140.332 22.0474 138.432 22.7407 137.082 22.7612C133.487 22.7869 130.827 20.5683 130.827 16.311C130.827 12.0537 133.61 9.93273 137.154 9.95327C138.776 9.95327 140.332 10.7185 141.021 11.9253L141.118 10.2511V10.2511ZM133.826 16.311C133.826 18.622 135.428 20.0034 137.421 20.0034C142.15 20.0034 142.15 12.6391 137.421 12.6391C135.428 12.6391 133.826 13.9949 133.826 16.311V16.311Z" fill="#512082"/>
<path d="M159 10.252L151.589 27.4661H148.287L150.552 22.1971L145.704 10.2571H149.201L151.045 15.5056L152.2 18.9258L153.454 15.5775L155.672 10.2571H159V10.252Z" fill="#512082"/>
</g>
<defs>
<clipPath id="clip0_2114_47999">
<rect width="159" height="31.3214" fill="white"/>
</clipPath>
</defs>
</svg>
