<svg width="118" height="24" viewBox="0 0 118 24" fill="none" xmlns="http://www.w3.org/2000/svg">
<path d="M13.8071 5.30372C12.6516 4.19445 10.9261 3.58333 9.42652 3.58333C5.7341 3.58333 3.48989 6.39245 3.48989 9.93594C3.48989 12.7656 5.13838 15.698 9.42652 15.698C10.7823 15.698 11.9635 15.4052 13.3192 14.3216V11.266H8.91297V8.35934H16.3029V15.6209C14.6031 17.5673 12.4616 18.7228 9.43165 18.7228C2.9558 18.7228 0.321289 14.4603 0.321289 9.9308C0.321289 5.07776 3.35123 0.599609 9.43165 0.599609C11.7478 0.599609 14.0587 1.48805 15.8356 3.23412L13.8174 5.30372H13.8071Z" fill="white"/>
<path d="M22.1886 6.1875V12.5401C22.1886 14.3889 23.2003 15.7909 25.1158 15.7909C27.0314 15.7909 28.2177 14.24 28.2177 12.3912V6.1875H31.1963V18.3535H28.5104L28.3152 16.705C27.057 17.9375 25.9016 18.5281 24.2017 18.5281C21.295 18.5281 19.1792 16.3352 19.1792 12.5658V6.1875H22.1835H22.1886Z" fill="white"/>
<path d="M43.8089 6.18668H46.6899V18.327H43.8551L43.7062 16.5552C43.018 17.9829 41.123 18.6762 39.7672 18.6967C36.1724 18.7224 33.5122 16.5039 33.5122 12.2466C33.5122 7.98924 36.2956 5.86828 39.8391 5.88882C41.462 5.88882 43.018 6.65401 43.7062 7.86085L43.8037 6.18668H43.8089ZM36.5216 12.2466C36.5216 14.5575 38.1239 15.939 40.1165 15.939C44.8462 15.939 44.8462 8.57468 40.1165 8.57468C38.1239 8.57468 36.5216 9.93045 36.5216 12.2466V12.2466Z" fill="white"/>
<path d="M53.6743 2.76758V6.21349H57.0226V8.80178H53.6486V14.0451C53.6486 15.2006 54.2905 15.7655 55.2252 15.7655C55.6925 15.7655 56.2369 15.6166 56.6786 15.4009L57.5156 17.9584C56.6529 18.3024 55.939 18.4514 55.0301 18.4771C52.3956 18.5798 50.67 17.0751 50.67 14.0451V8.80178H48.4053V6.21349H50.67V3.08598L53.6743 2.76758V2.76758Z" fill="white"/>
<path d="M68.7774 6.18668H71.6584V18.327H68.8287L68.6798 16.5552C67.9916 17.9829 66.0966 18.6762 64.7409 18.6967C61.146 18.7224 58.4858 16.5039 58.4858 12.2466C58.4858 7.98924 61.2693 5.86828 64.8128 5.88882C66.4356 5.88882 67.9916 6.65401 68.6798 7.86085L68.7774 6.18668V6.18668ZM61.4901 12.2466C61.4901 14.5575 63.0924 15.939 65.085 15.939C69.8147 15.939 69.8147 8.57468 65.085 8.57468C63.0924 8.57468 61.4901 9.93045 61.4901 12.2466V12.2466Z" fill="white"/>
<path d="M74.5293 23.4011V6.18697H77.3384L77.5336 7.86114C78.4734 6.50537 80.0962 5.91992 81.4725 5.91992C85.2163 5.91992 87.7018 8.70336 87.7018 12.2725C87.7018 15.8417 85.4628 18.6251 81.5701 18.6251C80.2913 18.6251 78.3912 18.2297 77.5336 16.8996V23.4011H74.5293V23.4011ZM84.6976 12.2725C84.6976 10.3775 83.4188 8.82661 81.2517 8.82661C79.0845 8.82661 77.8057 10.3775 77.8057 12.2725C77.8057 14.1675 79.2077 15.7184 81.2517 15.7184C83.2956 15.7184 84.6976 14.1675 84.6976 12.2725Z" fill="white"/>
<path d="M99.7344 6.18668H102.615V18.327H99.7858L99.6368 16.5552C98.9487 17.9829 97.0485 18.6762 95.6979 18.6967C92.1031 18.7224 89.4429 16.5039 89.4429 12.2466C89.4429 7.98924 92.2263 5.86828 95.7698 5.88882C97.3926 5.88882 98.9487 6.65401 99.6368 7.86085L99.7344 6.18668V6.18668ZM92.442 12.2466C92.442 14.5575 94.0443 15.939 96.0368 15.939C100.767 15.939 100.767 8.57468 96.0368 8.57468C94.0443 8.57468 92.442 9.93045 92.442 12.2466V12.2466Z" fill="white"/>
<path d="M117.616 6.1875L110.206 23.4017H106.903L109.168 18.1327L104.32 6.19264H107.818L109.661 11.4411L110.817 14.8613L112.07 11.513L114.288 6.19264H117.616V6.1875Z" fill="white"/>
</svg>
