<svg width="32" height="32" viewBox="0 0 32 32" fill="none" xmlns="http://www.w3.org/2000/svg">
<path d="M8.94097 9.28587H8.9461C10.6716 7.56035 13.0391 6.49216 15.6633 6.49216C18.2876 6.49216 20.6294 7.52953 22.3857 9.2756L26.453 5.20829L31.3214 0.339844L22.9609 2.6046C20.7629 1.40289 18.2568 0.735277 15.6582 0.735277C11.4574 0.735277 7.63142 2.45053 4.86852 5.21343C2.11076 7.97632 0.395508 11.792 0.395508 16.0031H6.1524C6.1524 13.384 7.21544 11.0063 8.93583 9.28587H8.94097Z" fill="#D2B5F9"/>
<path d="M12.7822 18.8792H24.7223C24.2549 20.348 23.4435 21.6575 22.3753 22.7154C20.655 24.441 18.2824 25.5091 15.6581 25.5091C13.0339 25.5091 10.6716 24.4461 8.94089 22.7154L4.86845 26.7879L0 31.6615L8.35545 29.3967C10.5278 30.5881 13.0185 31.266 15.6633 31.266C19.8744 31.266 23.69 29.5508 26.4529 26.7879C29.2158 24.025 30.9311 20.2093 30.9311 15.9982V13.1172H18.5443L12.7874 18.8741L12.7822 18.8792Z" fill="#D2B5F9"/>
</svg>
