<svg width="38" height="37" viewBox="0 0 38 37" fill="none" xmlns="http://www.w3.org/2000/svg">
<path d="M15.7493 18.6122C15.7493 16.7525 17.2574 15.2445 19.1183 15.2445C20.9792 15.2445 22.4881 16.7525 22.4881 18.6122C22.4881 20.472 20.9792 21.98 19.1183 21.98C17.2574 21.98 15.7493 20.472 15.7493 18.6122ZM13.9277 18.6122C13.9277 21.4773 16.2515 23.7997 19.1183 23.7997C21.9851 23.7997 24.3089 21.4773 24.3089 18.6122C24.3089 15.7472 21.9851 13.4247 19.1183 13.4247C16.2515 13.4247 13.9277 15.7472 13.9277 18.6122ZM23.3014 13.2191C23.3013 13.4588 23.3723 13.6932 23.5055 13.8926C23.6387 14.0921 23.8281 14.2475 24.0497 14.3394C24.2713 14.4312 24.5152 14.4553 24.7506 14.4086C24.9859 14.3619 25.2021 14.2466 25.3718 14.0771C25.5415 13.9076 25.6571 13.6917 25.704 13.4565C25.7509 13.2214 25.727 12.9776 25.6353 12.7561C25.5435 12.5345 25.3881 12.3451 25.1887 12.2118C24.9893 12.0785 24.7548 12.0073 24.5149 12.0072H24.5144C24.1928 12.0074 23.8844 12.1351 23.657 12.3623C23.4295 12.5895 23.3016 12.8977 23.3014 13.2191ZM15.0344 26.8354C14.0489 26.7905 13.5132 26.6265 13.1573 26.4879C12.6853 26.3042 12.3486 26.0856 11.9945 25.7322C11.6405 25.3789 11.4213 25.0427 11.2384 24.571C11.0996 24.2154 10.9355 23.6799 10.8907 22.6949C10.8417 21.63 10.8319 21.3102 10.8319 18.6123C10.8319 15.9145 10.8425 15.5955 10.8907 14.5297C10.9356 13.5448 11.1009 13.0103 11.2384 12.6536C11.4221 12.182 11.641 11.8454 11.9945 11.4916C12.3481 11.1378 12.6845 10.9188 13.1573 10.7359C13.5131 10.5973 14.0489 10.4332 15.0344 10.3884C16.1 10.3394 16.42 10.3297 19.1183 10.3297C21.8165 10.3297 22.1369 10.3403 23.2034 10.3884C24.1889 10.4333 24.7237 10.5986 25.0805 10.7359C25.5525 10.9188 25.8892 11.1383 26.2433 11.4916C26.5973 11.845 26.8157 12.182 26.9994 12.6536C27.1382 13.0092 27.3023 13.5448 27.3471 14.5297C27.3961 15.5955 27.4059 15.9145 27.4059 18.6123C27.4059 21.3102 27.3961 21.6292 27.3471 22.6949C27.3022 23.6799 27.1373 24.2152 26.9994 24.571C26.8157 25.0427 26.5968 25.3792 26.2433 25.7322C25.8897 26.0852 25.5525 26.3042 25.0805 26.4879C24.7247 26.6266 24.1889 26.7906 23.2034 26.8354C22.1378 26.8844 21.8178 26.8942 19.1183 26.8942C16.4188 26.8942 16.0996 26.8844 15.0344 26.8354ZM14.9507 8.57095C13.8746 8.61992 13.1393 8.79045 12.4971 9.04019C11.8321 9.29808 11.2691 9.64407 10.7065 10.2054C10.1439 10.7668 9.79855 11.3304 9.5405 11.995C9.29062 12.6372 9.11999 13.3717 9.07098 14.4472C9.02117 15.5244 9.00977 15.8687 9.00977 18.6122C9.00977 21.3557 9.02117 21.7001 9.07098 22.7773C9.11999 23.8528 9.29062 24.5872 9.5405 25.2294C9.79855 25.8937 10.1439 26.4579 10.7065 27.019C11.269 27.5801 11.8321 27.9257 12.4971 28.1843C13.1405 28.434 13.8746 28.6045 14.9507 28.6535C16.0291 28.7025 16.3731 28.7147 19.1183 28.7147C21.8634 28.7147 22.208 28.7033 23.2858 28.6535C24.362 28.6045 25.0969 28.434 25.7395 28.1843C26.4041 27.9257 26.9675 27.5804 27.5301 27.019C28.0927 26.4576 28.4373 25.8937 28.6961 25.2294C28.946 24.5872 29.1174 23.8527 29.1656 22.7773C29.2146 21.6993 29.226 21.3557 29.226 18.6122C29.226 15.8687 29.2146 15.5244 29.1656 14.4472C29.1166 13.3716 28.946 12.6368 28.6961 11.995C28.4373 11.3308 28.0918 10.7677 27.5301 10.2054C26.9684 9.64318 26.4041 9.29808 25.7403 9.04019C25.0969 8.79045 24.3619 8.61911 23.2866 8.57095C22.2088 8.52197 21.8643 8.50977 19.1191 8.50977C16.3739 8.50977 16.0291 8.52116 14.9507 8.57095Z" fill="#C9D2FA"/>
</svg>
