<svg width="38" height="37" viewBox="0 0 38 37" fill="none" xmlns="http://www.w3.org/2000/svg">
<path d="M15.7496 18.6122C15.7496 16.7525 17.2577 15.2445 19.1185 15.2445C20.9794 15.2445 22.4883 16.7525 22.4883 18.6122C22.4883 20.472 20.9794 21.98 19.1185 21.98C17.2577 21.98 15.7496 20.472 15.7496 18.6122ZM13.9279 18.6122C13.9279 21.4773 16.2518 23.7997 19.1185 23.7997C21.9853 23.7997 24.3091 21.4773 24.3091 18.6122C24.3091 15.7472 21.9853 13.4247 19.1185 13.4247C16.2518 13.4247 13.9279 15.7472 13.9279 18.6122ZM23.3016 13.2191C23.3015 13.4588 23.3726 13.6932 23.5058 13.8926C23.639 14.0921 23.8284 14.2475 24.05 14.3394C24.2716 14.4312 24.5155 14.4553 24.7508 14.4086C24.9861 14.3619 25.2023 14.2466 25.372 14.0771C25.5417 13.9076 25.6574 13.6917 25.7043 13.4565C25.7511 13.2214 25.7272 12.9776 25.6355 12.7561C25.5438 12.5345 25.3884 12.3451 25.189 12.2118C24.9895 12.0785 24.755 12.0073 24.5151 12.0072H24.5146C24.193 12.0074 23.8847 12.1351 23.6572 12.3623C23.4298 12.5895 23.3019 12.8977 23.3016 13.2191V13.2191ZM15.0347 26.8354C14.0492 26.7905 13.5135 26.6265 13.1575 26.4879C12.6856 26.3042 12.3488 26.0856 11.9948 25.7322C11.6407 25.3789 11.4216 25.0427 11.2387 24.571C11.0999 24.2154 10.9357 23.6799 10.8909 22.6949C10.8419 21.63 10.8321 21.3102 10.8321 18.6123C10.8321 15.9145 10.8427 15.5955 10.8909 14.5297C10.9358 13.5448 11.1012 13.0103 11.2387 12.6536C11.4224 12.182 11.6412 11.8454 11.9948 11.4916C12.3483 11.1378 12.6847 10.9188 13.1575 10.7359C13.5133 10.5973 14.0492 10.4332 15.0347 10.3884C16.1002 10.3394 16.4203 10.3297 19.1185 10.3297C21.8168 10.3297 22.1372 10.3403 23.2036 10.3884C24.1891 10.4333 24.7239 10.5986 25.0808 10.7359C25.5527 10.9188 25.8895 11.1383 26.2435 11.4916C26.5976 11.845 26.8159 12.182 26.9996 12.6536C27.1384 13.0092 27.3026 13.5448 27.3474 14.5297C27.3964 15.5955 27.4062 15.9145 27.4062 18.6123C27.4062 21.3102 27.3964 21.6292 27.3474 22.6949C27.3025 23.6799 27.1375 24.2152 26.9996 24.571C26.8159 25.0427 26.5971 25.3792 26.2435 25.7322C25.89 26.0852 25.5527 26.3042 25.0808 26.4879C24.725 26.6266 24.1891 26.7906 23.2036 26.8354C22.1381 26.8844 21.818 26.8942 19.1185 26.8942C16.4191 26.8942 16.0999 26.8844 15.0347 26.8354V26.8354ZM14.951 8.57095C13.8749 8.61992 13.1395 8.79045 12.4974 9.04019C11.8323 9.29808 11.2693 9.64407 10.7067 10.2054C10.1441 10.7668 9.7988 11.3304 9.54075 11.995C9.29087 12.6372 9.12023 13.3717 9.07123 14.4472C9.02141 15.5244 9.01001 15.8687 9.01001 18.6122C9.01001 21.3557 9.02141 21.7001 9.07123 22.7773C9.12023 23.8528 9.29087 24.5872 9.54075 25.2294C9.7988 25.8937 10.1442 26.4579 10.7067 27.019C11.2692 27.5801 11.8323 27.9257 12.4974 28.1843C13.1408 28.434 13.8749 28.6045 14.951 28.6535C16.0294 28.7025 16.3734 28.7147 19.1185 28.7147C21.8637 28.7147 22.2083 28.7033 23.2861 28.6535C24.3623 28.6045 25.0971 28.434 25.7397 28.1843C26.4044 27.9257 26.9678 27.5804 27.5304 27.019C28.093 26.4576 28.4375 25.8937 28.6963 25.2294C28.9462 24.5872 29.1176 23.8527 29.1658 22.7773C29.2149 21.6993 29.2263 21.3557 29.2263 18.6122C29.2263 15.8687 29.2149 15.5244 29.1658 14.4472C29.1168 13.3716 28.9462 12.6368 28.6963 11.995C28.4375 11.3308 28.0921 10.7677 27.5304 10.2054C26.9687 9.64318 26.4044 9.29808 25.7405 9.04019C25.0971 8.79045 24.3622 8.61911 23.2869 8.57095C22.2091 8.52197 21.8645 8.50977 19.1193 8.50977C16.3742 8.50977 16.0294 8.52116 14.951 8.57095Z" fill="#C9D2FA"/>
</svg>
