<svg width="76" height="76" viewBox="0 0 76 76" fill="none" xmlns="http://www.w3.org/2000/svg">
<path d="M21.9089 22.4199H21.9212C26.053 18.288 31.7221 15.7302 38.0059 15.7302C44.2898 15.7302 49.8974 18.2143 54.103 22.3953L63.8424 12.6559L75.5002 0.998047L55.4803 6.42115C50.2171 3.54359 44.216 1.94494 37.9936 1.94494C27.9345 1.94494 18.7731 6.05223 12.1572 12.6682C5.55356 19.2841 1.44629 28.421 1.44629 38.5048H15.2315C15.2315 32.2332 17.777 26.5395 21.8966 22.4199H21.9089Z" fill="#6466E9"/>
<path d="M31.1078 45.3913H59.6988C58.5798 48.9083 56.6368 52.0441 54.079 54.5774C49.9594 58.7093 44.2781 61.2671 37.9942 61.2671C31.7104 61.2671 26.0536 58.7216 21.9095 54.5774L12.1578 64.3291L0.5 75.9993L20.5076 70.5762C25.7093 73.4291 31.6735 75.0524 38.0065 75.0524C48.0903 75.0524 57.2271 70.9451 63.843 64.3291C70.4589 57.7132 74.5662 48.5763 74.5662 38.4925V31.5938H44.9053L31.1201 45.379L31.1078 45.3913Z" fill="#6466E9"/>
</svg>
