<svg width="100" height="100" viewBox="0 0 100 100" fill="none" xmlns="http://www.w3.org/2000/svg">
<path d="M28.5456 28.5621H28.562C34.0711 23.053 41.6297 19.6426 50.0082 19.6426C58.3866 19.6426 65.8632 22.9546 71.4707 28.5293L84.4565 15.5435L100 0L73.3071 7.2307C66.2895 3.394 58.2882 1.2625 49.9918 1.2625C36.5797 1.2625 24.3646 6.73882 15.5435 15.5599C6.73876 24.3811 1.26245 36.5634 1.26245 50.0082H19.6425C19.6425 41.6462 23.0365 34.0548 28.5292 28.5621H28.5456Z" fill="#6466E9"/>
<path d="M40.8102 59.1894H78.9313C77.4392 63.8787 74.8486 68.0598 71.4382 71.4374C65.9455 76.9465 58.3705 80.3569 49.9921 80.3569C41.6136 80.3569 34.0714 76.9629 28.5459 71.4374L15.5438 84.4395L0.000244141 99.9994L26.6768 92.7687C33.6123 96.5726 41.5645 98.7369 50.0085 98.7369C63.4533 98.7369 75.6356 93.2606 84.4568 84.4395C93.2779 75.6184 98.7542 63.436 98.7542 49.9912V40.793H59.2067L40.8266 59.173L40.8102 59.1894Z" fill="#6466E9"/>
</svg>
