<svg width="100" height="100" viewBox="0 0 100 100" fill="none" xmlns="http://www.w3.org/2000/svg">
<path d="M28.5454 28.5621H28.5618C34.0709 23.053 41.6295 19.6426 50.0079 19.6426C58.3864 19.6426 65.863 22.9546 71.4705 28.5293L84.4562 15.5435L99.9998 0L73.3068 7.2307C66.2893 3.394 58.288 1.2625 49.9915 1.2625C36.5795 1.2625 24.3644 6.73882 15.5432 15.5599C6.73852 24.3811 1.26221 36.5634 1.26221 50.0082H19.6423C19.6423 41.6462 23.0363 34.0548 28.529 28.5621H28.5454Z" fill="#6466E9"/>
<path d="M40.81 59.1894H78.931C77.439 63.8787 74.8484 68.0598 71.438 71.4374C65.9453 76.9465 58.3703 80.3569 49.9918 80.3569C41.6134 80.3569 34.0712 76.9629 28.5457 71.4374L15.5435 84.4395L0 99.9994L26.6765 92.7687C33.6121 96.5726 41.5642 98.7369 50.0082 98.7369C63.4531 98.7369 75.6354 93.2606 84.4565 84.4395C93.2776 75.6184 98.754 63.436 98.754 49.9912V40.793H59.2065L40.8264 59.173L40.81 59.1894Z" fill="#6466E9"/>
</svg>
