<svg width="64" height="64" viewBox="0 0 64 64" fill="none" xmlns="http://www.w3.org/2000/svg">
<g clip-path="url(#clip0_1683_20013)">
<rect y="9.14648" width="64" height="45.7143" rx="7.91667" fill="white"/>
<mask id="mask0_1683_20013" style="mask-type:luminance" maskUnits="userSpaceOnUse" x="0" y="9" width="64" height="46">
<rect y="9.14648" width="64" height="45.7143" rx="7.91667" fill="white"/>
</mask>
<g mask="url(#mask0_1683_20013)">
<path fill-rule="evenodd" clip-rule="evenodd" d="M64 9.14648H0V12.1941H64V9.14648ZM64 15.2435H0V18.2911H64V15.2435ZM0 21.3366H64V24.3843H0V21.3366ZM64 27.4335H0V30.4811H64V27.4335ZM0 33.5266H64V36.5742H0V33.5266ZM64 39.6234H0V42.671H64V39.6234ZM0 45.7165H64V48.7642H0V45.7165ZM64 51.8134H0V54.861H64V51.8134Z" fill="#D02F44"/>
<rect y="9.14648" width="27.4286" height="21.3333" fill="#46467F"/>
<g filter="url(#filter0_d_1683_20013)">
<path fill-rule="evenodd" clip-rule="evenodd" d="M6.09449 13.7172C6.09449 14.5587 5.41226 15.241 4.57068 15.241C3.72911 15.241 3.04688 14.5587 3.04688 13.7172C3.04688 12.8756 3.72911 12.1934 4.57068 12.1934C5.41226 12.1934 6.09449 12.8756 6.09449 13.7172ZM12.1876 13.7172C12.1876 14.5587 11.5054 15.241 10.6638 15.241C9.82225 15.241 9.14001 14.5587 9.14001 13.7172C9.14001 12.8756 9.82225 12.1934 10.6638 12.1934C11.5054 12.1934 12.1876 12.8756 12.1876 13.7172ZM16.7643 15.241C17.6059 15.241 18.2881 14.5587 18.2881 13.7172C18.2881 12.8756 17.6059 12.1934 16.7643 12.1934C15.9227 12.1934 15.2405 12.8756 15.2405 13.7172C15.2405 14.5587 15.9227 15.241 16.7643 15.241ZM24.3813 13.7172C24.3813 14.5587 23.699 15.241 22.8575 15.241C22.0159 15.241 21.3336 14.5587 21.3336 13.7172C21.3336 12.8756 22.0159 12.1934 22.8575 12.1934C23.699 12.1934 24.3813 12.8756 24.3813 13.7172ZM7.61725 18.2875C8.45883 18.2875 9.14106 17.6053 9.14106 16.7637C9.14106 15.9222 8.45883 15.2399 7.61725 15.2399C6.77568 15.2399 6.09344 15.9222 6.09344 16.7637C6.09344 17.6053 6.77568 18.2875 7.61725 18.2875ZM15.2342 16.7637C15.2342 17.6053 14.552 18.2875 13.7104 18.2875C12.8688 18.2875 12.1866 17.6053 12.1866 16.7637C12.1866 15.9222 12.8688 15.2399 13.7104 15.2399C14.552 15.2399 15.2342 15.9222 15.2342 16.7637ZM19.8109 18.2875C20.6525 18.2875 21.3347 17.6053 21.3347 16.7637C21.3347 15.9222 20.6525 15.2399 19.8109 15.2399C18.9693 15.2399 18.2871 15.9222 18.2871 16.7637C18.2871 17.6053 18.9693 18.2875 19.8109 18.2875ZM24.3813 19.814C24.3813 20.6556 23.699 21.3378 22.8575 21.3378C22.0159 21.3378 21.3336 20.6556 21.3336 19.814C21.3336 18.9724 22.0159 18.2902 22.8575 18.2902C23.699 18.2902 24.3813 18.9724 24.3813 19.814ZM16.7643 21.3378C17.6059 21.3378 18.2881 20.6556 18.2881 19.814C18.2881 18.9724 17.6059 18.2902 16.7643 18.2902C15.9227 18.2902 15.2405 18.9724 15.2405 19.814C15.2405 20.6556 15.9227 21.3378 16.7643 21.3378ZM12.1876 19.814C12.1876 20.6556 11.5054 21.3378 10.6638 21.3378C9.82225 21.3378 9.14001 20.6556 9.14001 19.814C9.14001 18.9724 9.82225 18.2902 10.6638 18.2902C11.5054 18.2902 12.1876 18.9724 12.1876 19.814ZM4.57068 21.3378C5.41226 21.3378 6.09449 20.6556 6.09449 19.814C6.09449 18.9724 5.41226 18.2902 4.57068 18.2902C3.72911 18.2902 3.04688 18.9724 3.04688 19.814C3.04688 20.6556 3.72911 21.3378 4.57068 21.3378ZM9.14106 22.8606C9.14106 23.7021 8.45883 24.3844 7.61725 24.3844C6.77568 24.3844 6.09344 23.7021 6.09344 22.8606C6.09344 22.019 6.77568 21.3367 7.61725 21.3367C8.45883 21.3367 9.14106 22.019 9.14106 22.8606ZM13.7104 24.3844C14.552 24.3844 15.2342 23.7021 15.2342 22.8606C15.2342 22.019 14.552 21.3367 13.7104 21.3367C12.8688 21.3367 12.1866 22.019 12.1866 22.8606C12.1866 23.7021 12.8688 24.3844 13.7104 24.3844ZM21.3347 22.8606C21.3347 23.7021 20.6525 24.3844 19.8109 24.3844C18.9693 24.3844 18.2871 23.7021 18.2871 22.8606C18.2871 22.019 18.9693 21.3367 19.8109 21.3367C20.6525 21.3367 21.3347 22.019 21.3347 22.8606ZM22.8575 27.4309C23.699 27.4309 24.3813 26.7487 24.3813 25.9071C24.3813 25.0655 23.699 24.3833 22.8575 24.3833C22.0159 24.3833 21.3336 25.0655 21.3336 25.9071C21.3336 26.7487 22.0159 27.4309 22.8575 27.4309ZM18.2881 25.9071C18.2881 26.7487 17.6059 27.4309 16.7643 27.4309C15.9227 27.4309 15.2405 26.7487 15.2405 25.9071C15.2405 25.0655 15.9227 24.3833 16.7643 24.3833C17.6059 24.3833 18.2881 25.0655 18.2881 25.9071ZM10.6638 27.4309C11.5054 27.4309 12.1876 26.7487 12.1876 25.9071C12.1876 25.0655 11.5054 24.3833 10.6638 24.3833C9.82225 24.3833 9.14001 25.0655 9.14001 25.9071C9.14001 26.7487 9.82225 27.4309 10.6638 27.4309ZM6.09449 25.9071C6.09449 26.7487 5.41226 27.4309 4.57068 27.4309C3.72911 27.4309 3.04688 26.7487 3.04688 25.9071C3.04688 25.0655 3.72911 24.3833 4.57068 24.3833C5.41226 24.3833 6.09449 25.0655 6.09449 25.9071Z" fill="url(#paint0_linear_1683_20013)"/>
</g>
</g>
</g>
<defs>
<filter id="filter0_d_1683_20013" x="3.04688" y="12.1934" width="21.334" height="19.1966" filterUnits="userSpaceOnUse" color-interpolation-filters="sRGB">
<feFlood flood-opacity="0" result="BackgroundImageFix"/>
<feColorMatrix in="SourceAlpha" type="matrix" values="0 0 0 0 0 0 0 0 0 0 0 0 0 0 0 0 0 0 127 0" result="hardAlpha"/>
<feOffset dy="3.95833"/>
<feColorMatrix type="matrix" values="0 0 0 0 0 0 0 0 0 0 0 0 0 0 0 0 0 0 0.06 0"/>
<feBlend mode="normal" in2="BackgroundImageFix" result="effect1_dropShadow_1683_20013"/>
<feBlend mode="normal" in="SourceGraphic" in2="effect1_dropShadow_1683_20013" result="shape"/>
</filter>
<linearGradient id="paint0_linear_1683_20013" x1="3.04688" y1="12.1934" x2="3.04688" y2="27.4309" gradientUnits="userSpaceOnUse">
<stop stop-color="white"/>
<stop offset="1" stop-color="#F0F0F0"/>
</linearGradient>
<clipPath id="clip0_1683_20013">
<rect width="64" height="64" fill="white"/>
</clipPath>
</defs>
</svg>
