<svg width="77" height="77" viewBox="0 0 77 77" fill="none" xmlns="http://www.w3.org/2000/svg">
<g filter="url(#filter0_b_1749_16426)">
<rect width="77" height="77" rx="16" fill="#E1E7FD" fill-opacity="0.6"/>
<path d="M36.4743 53.3334V49.8718H31.3461V48.4616H34.8077V31.5385H31.3461V30.1282H36.4743V26.6667H37.8846V30.1282H41.923V26.6667H43.3333V30.1421C44.8219 30.219 46.0274 30.7505 46.9497 31.7366C47.8721 32.7228 48.3333 33.9494 48.3333 35.4167C48.3333 36.3034 48.1566 37.101 47.8034 37.8093C47.4501 38.5176 46.9957 39.1086 46.4401 39.5823C47.5719 39.9334 48.4481 40.562 49.0689 41.468C49.6896 42.374 49.9999 43.4124 49.9999 44.5834C49.9999 46.1147 49.5024 47.3789 48.5074 48.3761C47.5124 49.3732 46.2471 49.8718 44.7115 49.8718H43.3333V53.3334H41.923V49.8718H37.8846V53.3334H36.4743ZM36.2179 39.2949H43.0448C44.168 39.2949 45.0952 38.9283 45.8263 38.195C46.5575 37.4617 46.923 36.5356 46.923 35.4167C46.923 34.2935 46.5575 33.3663 45.8263 32.6352C45.0952 31.904 44.168 31.5385 43.0448 31.5385H36.2179V39.2949ZM36.2179 48.4616H44.7115C45.8347 48.4616 46.7619 48.0949 47.493 47.3617C48.2241 46.6284 48.5897 45.7023 48.5897 44.5834C48.5897 43.4601 48.2241 42.533 47.493 41.8019C46.7619 41.0707 45.8347 40.7051 44.7115 40.7051H36.2179V48.4616Z" fill="#6466E9"/>
</g>
<defs>
<filter id="filter0_b_1749_16426" x="-24" y="-24" width="125" height="125" filterUnits="userSpaceOnUse" color-interpolation-filters="sRGB">
<feFlood flood-opacity="0" result="BackgroundImageFix"/>
<feGaussianBlur in="BackgroundImageFix" stdDeviation="12"/>
<feComposite in2="SourceAlpha" operator="in" result="effect1_backgroundBlur_1749_16426"/>
<feBlend mode="normal" in="SourceGraphic" in2="effect1_backgroundBlur_1749_16426" result="shape"/>
</filter>
</defs>
</svg>
