<svg width="38" height="37" viewBox="0 0 38 37" fill="none" xmlns="http://www.w3.org/2000/svg">
<path d="M27.7059 13.1831C27.1466 13.4238 26.5585 13.5915 25.9563 13.6819C26.2378 13.6336 26.6521 13.1268 26.817 12.9217C27.0676 12.6122 27.2585 12.259 27.3801 11.8799C27.3801 11.8517 27.4083 11.8115 27.3801 11.7914C27.3659 11.7837 27.35 11.7796 27.3339 11.7796C27.3177 11.7796 27.3018 11.7837 27.2876 11.7914C26.6337 12.1455 25.9377 12.4158 25.2162 12.5958C25.191 12.6035 25.1643 12.6042 25.1387 12.5978C25.1132 12.5915 25.0899 12.5783 25.0714 12.5596C25.0152 12.4928 24.9547 12.4296 24.8904 12.3706C24.5961 12.1069 24.2622 11.8911 23.9009 11.7311C23.4132 11.531 22.8864 11.4443 22.3604 11.4777C21.8499 11.5099 21.3515 11.6468 20.8963 11.8799C20.4479 12.1256 20.0539 12.4594 19.7379 12.8613C19.4054 13.2749 19.1654 13.755 19.034 14.2691C18.9256 14.7582 18.9133 15.2636 18.9978 15.7573C18.9978 15.8418 18.9978 15.8539 18.9254 15.8418C16.0575 15.4195 13.7045 14.4018 11.7818 12.2178C11.6974 12.1212 11.6531 12.1212 11.5848 12.2178C10.7481 13.4888 11.1544 15.4999 12.2002 16.4934C12.3409 16.6261 12.4857 16.7549 12.6386 16.8755C12.1591 16.8415 11.6913 16.7115 11.263 16.4934C11.1825 16.4411 11.1383 16.4693 11.1343 16.5658C11.1229 16.6996 11.1229 16.8342 11.1343 16.968C11.2182 17.6094 11.471 18.217 11.8667 18.7287C12.2625 19.2403 12.787 19.6377 13.3867 19.8801C13.5329 19.9428 13.6852 19.9899 13.8412 20.0209C13.3974 20.1083 12.9421 20.1219 12.4938 20.0611C12.3973 20.041 12.3611 20.0933 12.3973 20.1858C12.9885 21.7947 14.2716 22.2854 15.2128 22.559C15.3415 22.5791 15.4703 22.5791 15.6151 22.6113C15.6151 22.6113 15.6151 22.6113 15.5909 22.6354C15.3134 23.1422 14.1912 23.4841 13.6763 23.6611C12.7366 23.9986 11.7347 24.1276 10.7401 24.0392C10.5832 24.015 10.547 24.019 10.5068 24.0392C10.4666 24.0593 10.5068 24.1035 10.551 24.1437C10.7522 24.2765 10.9533 24.3931 11.1624 24.5057C11.7851 24.8454 12.4434 25.1151 13.1253 25.3102C16.6568 26.2836 20.6308 25.5676 23.2815 22.933C25.365 20.8656 26.097 18.0138 26.097 15.158C26.097 15.0494 26.2298 14.9851 26.3062 14.9288C26.8333 14.518 27.298 14.033 27.6858 13.4888C27.753 13.4077 27.7874 13.3044 27.7824 13.1992C27.7824 13.1389 27.7824 13.1509 27.7059 13.1831Z" fill="#C9D2FA"/>
</svg>
