<svg width="38" height="37" viewBox="0 0 38 37" fill="none" xmlns="http://www.w3.org/2000/svg">
<path d="M27.7057 13.1831C27.1463 13.4238 26.5582 13.5915 25.956 13.6819C26.2376 13.6336 26.6519 13.1268 26.8168 12.9217C27.0673 12.6122 27.2583 12.259 27.3799 11.8799C27.3799 11.8517 27.408 11.8115 27.3799 11.7914C27.3657 11.7837 27.3498 11.7796 27.3336 11.7796C27.3175 11.7796 27.3016 11.7837 27.2874 11.7914C26.6334 12.1455 25.9375 12.4158 25.2159 12.5958C25.1908 12.6035 25.164 12.6042 25.1385 12.5978C25.113 12.5915 25.0897 12.5783 25.0711 12.5596C25.015 12.4928 24.9545 12.4296 24.8901 12.3706C24.5958 12.1069 24.2619 11.8911 23.9006 11.7311C23.413 11.531 22.8862 11.4443 22.3601 11.4777C21.8497 11.5099 21.3513 11.6468 20.896 11.8799C20.4477 12.1256 20.0537 12.4594 19.7376 12.8613C19.4052 13.2749 19.1652 13.755 19.0337 14.2691C18.9253 14.7582 18.913 15.2636 18.9975 15.7573C18.9975 15.8418 18.9975 15.8539 18.9251 15.8418C16.0573 15.4195 13.7042 14.4018 11.7816 12.2178C11.6971 12.1212 11.6529 12.1212 11.5845 12.2178C10.7479 13.4888 11.1541 15.4999 12.1999 16.4934C12.3407 16.6261 12.4855 16.7549 12.6383 16.8755C12.1589 16.8415 11.6911 16.7115 11.2627 16.4934C11.1823 16.4411 11.138 16.4693 11.134 16.5658C11.1226 16.6996 11.1226 16.8342 11.134 16.968C11.2179 17.6094 11.4707 18.217 11.8665 18.7287C12.2622 19.2403 12.7868 19.6377 13.3865 19.8801C13.5327 19.9428 13.685 19.9899 13.841 20.0209C13.3971 20.1083 12.9419 20.1219 12.4935 20.0611C12.397 20.041 12.3608 20.0933 12.397 20.1858C12.9883 21.7947 14.2714 22.2854 15.2126 22.559C15.3413 22.5791 15.47 22.5791 15.6148 22.6113C15.6148 22.6113 15.6148 22.6113 15.5907 22.6354C15.3131 23.1422 14.1909 23.4841 13.6761 23.6611C12.7364 23.9986 11.7344 24.1276 10.7398 24.0392C10.583 24.015 10.5468 24.019 10.5066 24.0392C10.4663 24.0593 10.5066 24.1035 10.5508 24.1437C10.7519 24.2765 10.953 24.3931 11.1622 24.5057C11.7848 24.8454 12.4431 25.1151 13.125 25.3102C16.6566 26.2836 20.6306 25.5676 23.2812 22.933C25.3647 20.8656 26.0968 18.0138 26.0968 15.158C26.0968 15.0494 26.2295 14.9851 26.306 14.9288C26.8331 14.518 27.2978 14.033 27.6856 13.4888C27.7527 13.4077 27.7872 13.3044 27.7821 13.1992V13.1992C27.7821 13.1389 27.7821 13.1509 27.7057 13.1831Z" fill="#C9D2FA"/>
</svg>
